<mxfile host="app.diagrams.net" agent="Mozilla/5.0 (Windows NT 10.0; Win64; x64) AppleWebKit/537.36 (KHTML, like Gecko) Chrome/131.0.0.0 Safari/537.36 Edg/131.0.0.0" version="25.0.3">
  <diagram name="Page-1" id="i9FeLITrhWndN_9dJNux">
    <mxGraphModel dx="1762" dy="791" grid="1" gridSize="10" guides="1" tooltips="1" connect="1" arrows="1" fold="1" page="1" pageScale="1" pageWidth="850" pageHeight="1100" math="0" shadow="0">
      <root>
        <mxCell id="0" />
        <mxCell id="1" parent="0" />
        <mxCell id="liBEOMwWcHnnp5ZD2fOm-6" value="" style="edgeStyle=orthogonalEdgeStyle;rounded=0;orthogonalLoop=1;jettySize=auto;html=1;" edge="1" parent="1" source="liBEOMwWcHnnp5ZD2fOm-1" target="liBEOMwWcHnnp5ZD2fOm-2">
          <mxGeometry relative="1" as="geometry" />
        </mxCell>
        <mxCell id="liBEOMwWcHnnp5ZD2fOm-10" value="" style="edgeStyle=orthogonalEdgeStyle;rounded=0;orthogonalLoop=1;jettySize=auto;html=1;" edge="1" parent="1" source="liBEOMwWcHnnp5ZD2fOm-1" target="liBEOMwWcHnnp5ZD2fOm-9">
          <mxGeometry relative="1" as="geometry" />
        </mxCell>
        <mxCell id="liBEOMwWcHnnp5ZD2fOm-1" value="LOGIN" style="rounded=1;whiteSpace=wrap;html=1;absoluteArcSize=1;arcSize=14;strokeWidth=2;fillColor=#d5e8d4;strokeColor=#82b366;" vertex="1" parent="1">
          <mxGeometry x="90" y="100" width="100" height="100" as="geometry" />
        </mxCell>
        <mxCell id="liBEOMwWcHnnp5ZD2fOm-8" style="edgeStyle=orthogonalEdgeStyle;rounded=0;orthogonalLoop=1;jettySize=auto;html=1;exitX=0;exitY=0.5;exitDx=0;exitDy=0;entryX=0;entryY=0.5;entryDx=0;entryDy=0;" edge="1" parent="1" source="liBEOMwWcHnnp5ZD2fOm-2" target="liBEOMwWcHnnp5ZD2fOm-1">
          <mxGeometry relative="1" as="geometry" />
        </mxCell>
        <mxCell id="liBEOMwWcHnnp5ZD2fOm-2" value="SIGN UP" style="rounded=1;whiteSpace=wrap;html=1;absoluteArcSize=1;arcSize=14;strokeWidth=2;fillColor=#f8cecc;strokeColor=#b85450;" vertex="1" parent="1">
          <mxGeometry x="90" y="240" width="100" height="100" as="geometry" />
        </mxCell>
        <mxCell id="liBEOMwWcHnnp5ZD2fOm-5" style="edgeStyle=orthogonalEdgeStyle;rounded=0;orthogonalLoop=1;jettySize=auto;html=1;entryX=0;entryY=0.5;entryDx=0;entryDy=0;" edge="1" parent="1" source="liBEOMwWcHnnp5ZD2fOm-3" target="liBEOMwWcHnnp5ZD2fOm-1">
          <mxGeometry relative="1" as="geometry" />
        </mxCell>
        <mxCell id="liBEOMwWcHnnp5ZD2fOm-3" value="Actor" style="shape=umlActor;verticalLabelPosition=bottom;verticalAlign=top;html=1;outlineConnect=0;" vertex="1" parent="1">
          <mxGeometry x="30" y="120" width="30" height="60" as="geometry" />
        </mxCell>
        <mxCell id="liBEOMwWcHnnp5ZD2fOm-7" value="IF NEW USER" style="text;html=1;align=center;verticalAlign=middle;resizable=0;points=[];autosize=1;strokeColor=none;fillColor=none;" vertex="1" parent="1">
          <mxGeometry x="150" y="210" width="100" height="30" as="geometry" />
        </mxCell>
        <mxCell id="liBEOMwWcHnnp5ZD2fOm-33" value="" style="edgeStyle=orthogonalEdgeStyle;rounded=0;orthogonalLoop=1;jettySize=auto;html=1;" edge="1" parent="1" source="liBEOMwWcHnnp5ZD2fOm-9" target="liBEOMwWcHnnp5ZD2fOm-13">
          <mxGeometry relative="1" as="geometry" />
        </mxCell>
        <mxCell id="liBEOMwWcHnnp5ZD2fOm-9" value="HOME" style="rounded=1;whiteSpace=wrap;html=1;absoluteArcSize=1;arcSize=14;strokeWidth=2;fillColor=#d5e8d4;strokeColor=#82b366;" vertex="1" parent="1">
          <mxGeometry x="220" y="100" width="100" height="100" as="geometry" />
        </mxCell>
        <mxCell id="liBEOMwWcHnnp5ZD2fOm-15" style="edgeStyle=orthogonalEdgeStyle;rounded=0;orthogonalLoop=1;jettySize=auto;html=1;entryX=0;entryY=0.5;entryDx=0;entryDy=0;" edge="1" parent="1" source="liBEOMwWcHnnp5ZD2fOm-9" target="liBEOMwWcHnnp5ZD2fOm-13">
          <mxGeometry relative="1" as="geometry" />
        </mxCell>
        <mxCell id="liBEOMwWcHnnp5ZD2fOm-16" style="edgeStyle=orthogonalEdgeStyle;rounded=0;orthogonalLoop=1;jettySize=auto;html=1;entryX=0;entryY=0.5;entryDx=0;entryDy=0;" edge="1" parent="1" source="liBEOMwWcHnnp5ZD2fOm-9" target="liBEOMwWcHnnp5ZD2fOm-12">
          <mxGeometry relative="1" as="geometry" />
        </mxCell>
        <mxCell id="liBEOMwWcHnnp5ZD2fOm-17" style="edgeStyle=orthogonalEdgeStyle;rounded=0;orthogonalLoop=1;jettySize=auto;html=1;entryX=0;entryY=0.5;entryDx=0;entryDy=0;" edge="1" parent="1" source="liBEOMwWcHnnp5ZD2fOm-9" target="liBEOMwWcHnnp5ZD2fOm-11">
          <mxGeometry relative="1" as="geometry" />
        </mxCell>
        <mxCell id="liBEOMwWcHnnp5ZD2fOm-18" style="edgeStyle=orthogonalEdgeStyle;rounded=0;orthogonalLoop=1;jettySize=auto;html=1;entryX=0;entryY=0.5;entryDx=0;entryDy=0;" edge="1" parent="1" target="liBEOMwWcHnnp5ZD2fOm-14">
          <mxGeometry relative="1" as="geometry">
            <mxPoint x="320" y="150" as="sourcePoint" />
          </mxGeometry>
        </mxCell>
        <mxCell id="liBEOMwWcHnnp5ZD2fOm-11" value="LEADERBOARD" style="rounded=1;whiteSpace=wrap;html=1;absoluteArcSize=1;arcSize=14;strokeWidth=2;fillColor=#dae8fc;strokeColor=#6c8ebf;container=0;" vertex="1" parent="1">
          <mxGeometry x="375" y="270" width="100" height="100" as="geometry" />
        </mxCell>
        <mxCell id="liBEOMwWcHnnp5ZD2fOm-12" value="CHALLENGES" style="rounded=1;whiteSpace=wrap;html=1;absoluteArcSize=1;arcSize=14;strokeWidth=2;fillColor=#dae8fc;strokeColor=#6c8ebf;container=0;" vertex="1" parent="1">
          <mxGeometry x="375" y="160" width="100" height="100" as="geometry" />
        </mxCell>
        <mxCell id="liBEOMwWcHnnp5ZD2fOm-24" value="" style="edgeStyle=orthogonalEdgeStyle;rounded=0;orthogonalLoop=1;jettySize=auto;html=1;" edge="1" parent="1" source="liBEOMwWcHnnp5ZD2fOm-13" target="liBEOMwWcHnnp5ZD2fOm-23">
          <mxGeometry relative="1" as="geometry" />
        </mxCell>
        <mxCell id="liBEOMwWcHnnp5ZD2fOm-13" value="LEVEL SELECTION" style="rounded=1;whiteSpace=wrap;html=1;absoluteArcSize=1;arcSize=14;strokeWidth=2;fillColor=#d5e8d4;strokeColor=#82b366;container=0;" vertex="1" parent="1">
          <mxGeometry x="375" y="50" width="100" height="100" as="geometry" />
        </mxCell>
        <mxCell id="liBEOMwWcHnnp5ZD2fOm-35" style="edgeStyle=orthogonalEdgeStyle;rounded=0;orthogonalLoop=1;jettySize=auto;html=1;entryX=0.5;entryY=1;entryDx=0;entryDy=0;" edge="1" parent="1" source="liBEOMwWcHnnp5ZD2fOm-14" target="liBEOMwWcHnnp5ZD2fOm-9">
          <mxGeometry relative="1" as="geometry" />
        </mxCell>
        <mxCell id="liBEOMwWcHnnp5ZD2fOm-14" value="USER PAGE" style="rounded=1;whiteSpace=wrap;html=1;absoluteArcSize=1;arcSize=14;strokeWidth=2;fillColor=#f8cecc;strokeColor=#b85450;container=0;" vertex="1" parent="1">
          <mxGeometry x="375" y="380" width="100" height="100" as="geometry" />
        </mxCell>
        <mxCell id="liBEOMwWcHnnp5ZD2fOm-38" style="edgeStyle=orthogonalEdgeStyle;rounded=0;orthogonalLoop=1;jettySize=auto;html=1;entryX=0;entryY=0.5;entryDx=0;entryDy=0;" edge="1" parent="1" source="liBEOMwWcHnnp5ZD2fOm-23" target="liBEOMwWcHnnp5ZD2fOm-37">
          <mxGeometry relative="1" as="geometry" />
        </mxCell>
        <mxCell id="liBEOMwWcHnnp5ZD2fOm-23" value="LEVELS LIST" style="rounded=1;whiteSpace=wrap;html=1;absoluteArcSize=1;arcSize=14;strokeWidth=2;fillColor=#d5e8d4;strokeColor=#82b366;container=0;" vertex="1" parent="1">
          <mxGeometry x="520" y="50" width="100" height="100" as="geometry" />
        </mxCell>
        <mxCell id="liBEOMwWcHnnp5ZD2fOm-36" value="USER RETURNS HOME" style="text;html=1;align=center;verticalAlign=middle;resizable=0;points=[];autosize=1;strokeColor=none;fillColor=none;" vertex="1" parent="1">
          <mxGeometry x="200" y="440" width="160" height="30" as="geometry" />
        </mxCell>
        <mxCell id="liBEOMwWcHnnp5ZD2fOm-72" value="" style="group" vertex="1" connectable="0" parent="1">
          <mxGeometry x="670" y="70" width="1455" height="60" as="geometry" />
        </mxCell>
        <mxCell id="liBEOMwWcHnnp5ZD2fOm-46" value="" style="edgeStyle=orthogonalEdgeStyle;rounded=0;orthogonalLoop=1;jettySize=auto;html=1;" edge="1" parent="liBEOMwWcHnnp5ZD2fOm-72" source="liBEOMwWcHnnp5ZD2fOm-37" target="liBEOMwWcHnnp5ZD2fOm-45">
          <mxGeometry relative="1" as="geometry" />
        </mxCell>
        <mxCell id="liBEOMwWcHnnp5ZD2fOm-37" value="INTRO TO ALGEBRA" style="rounded=1;whiteSpace=wrap;html=1;absoluteArcSize=1;arcSize=14;strokeWidth=2;fillColor=#e1d5e7;strokeColor=#9673a6;container=0;" vertex="1" parent="liBEOMwWcHnnp5ZD2fOm-72">
          <mxGeometry y="5" width="90" height="50" as="geometry" />
        </mxCell>
        <mxCell id="liBEOMwWcHnnp5ZD2fOm-48" value="" style="edgeStyle=orthogonalEdgeStyle;rounded=0;orthogonalLoop=1;jettySize=auto;html=1;" edge="1" parent="liBEOMwWcHnnp5ZD2fOm-72" source="liBEOMwWcHnnp5ZD2fOm-45" target="liBEOMwWcHnnp5ZD2fOm-47">
          <mxGeometry relative="1" as="geometry" />
        </mxCell>
        <mxCell id="liBEOMwWcHnnp5ZD2fOm-45" value="SOLVING LINEAR EQUATIONS" style="rounded=1;whiteSpace=wrap;html=1;absoluteArcSize=1;arcSize=14;strokeWidth=2;fillColor=#e1d5e7;strokeColor=#9673a6;container=0;" vertex="1" parent="liBEOMwWcHnnp5ZD2fOm-72">
          <mxGeometry x="131" y="5" width="100" height="50" as="geometry" />
        </mxCell>
        <mxCell id="liBEOMwWcHnnp5ZD2fOm-50" value="" style="edgeStyle=orthogonalEdgeStyle;rounded=0;orthogonalLoop=1;jettySize=auto;html=1;" edge="1" parent="liBEOMwWcHnnp5ZD2fOm-72" source="liBEOMwWcHnnp5ZD2fOm-47" target="liBEOMwWcHnnp5ZD2fOm-49">
          <mxGeometry relative="1" as="geometry" />
        </mxCell>
        <mxCell id="liBEOMwWcHnnp5ZD2fOm-47" value="GRAPHING LINEAR EQUATIONS" style="rounded=1;whiteSpace=wrap;html=1;absoluteArcSize=1;arcSize=14;strokeWidth=2;fillColor=#e1d5e7;strokeColor=#9673a6;container=0;" vertex="1" parent="liBEOMwWcHnnp5ZD2fOm-72">
          <mxGeometry x="266" y="5" width="100" height="50" as="geometry" />
        </mxCell>
        <mxCell id="liBEOMwWcHnnp5ZD2fOm-52" value="" style="edgeStyle=orthogonalEdgeStyle;rounded=0;orthogonalLoop=1;jettySize=auto;html=1;" edge="1" parent="liBEOMwWcHnnp5ZD2fOm-72" source="liBEOMwWcHnnp5ZD2fOm-49" target="liBEOMwWcHnnp5ZD2fOm-51">
          <mxGeometry relative="1" as="geometry" />
        </mxCell>
        <mxCell id="liBEOMwWcHnnp5ZD2fOm-49" value="SYSTEMS OF EQUATIONS" style="rounded=1;whiteSpace=wrap;html=1;absoluteArcSize=1;arcSize=14;strokeWidth=2;fillColor=#e1d5e7;strokeColor=#9673a6;container=0;" vertex="1" parent="liBEOMwWcHnnp5ZD2fOm-72">
          <mxGeometry x="402" y="5" width="100" height="50" as="geometry" />
        </mxCell>
        <mxCell id="liBEOMwWcHnnp5ZD2fOm-54" value="" style="edgeStyle=orthogonalEdgeStyle;rounded=0;orthogonalLoop=1;jettySize=auto;html=1;" edge="1" parent="liBEOMwWcHnnp5ZD2fOm-72" source="liBEOMwWcHnnp5ZD2fOm-51" target="liBEOMwWcHnnp5ZD2fOm-53">
          <mxGeometry relative="1" as="geometry" />
        </mxCell>
        <mxCell id="liBEOMwWcHnnp5ZD2fOm-51" value="INEQUALITIES" style="rounded=1;whiteSpace=wrap;html=1;absoluteArcSize=1;arcSize=14;strokeWidth=2;fillColor=#e1d5e7;strokeColor=#9673a6;container=0;" vertex="1" parent="liBEOMwWcHnnp5ZD2fOm-72">
          <mxGeometry x="537" y="5" width="100" height="50" as="geometry" />
        </mxCell>
        <mxCell id="liBEOMwWcHnnp5ZD2fOm-57" value="" style="edgeStyle=orthogonalEdgeStyle;rounded=0;orthogonalLoop=1;jettySize=auto;html=1;" edge="1" parent="liBEOMwWcHnnp5ZD2fOm-72" source="liBEOMwWcHnnp5ZD2fOm-53" target="liBEOMwWcHnnp5ZD2fOm-56">
          <mxGeometry relative="1" as="geometry" />
        </mxCell>
        <mxCell id="liBEOMwWcHnnp5ZD2fOm-53" value="POLYNOMIALS" style="rounded=1;whiteSpace=wrap;html=1;absoluteArcSize=1;arcSize=14;strokeWidth=2;fillColor=#e1d5e7;strokeColor=#9673a6;container=0;" vertex="1" parent="liBEOMwWcHnnp5ZD2fOm-72">
          <mxGeometry x="673" y="5" width="100" height="50" as="geometry" />
        </mxCell>
        <mxCell id="liBEOMwWcHnnp5ZD2fOm-59" value="" style="edgeStyle=orthogonalEdgeStyle;rounded=0;orthogonalLoop=1;jettySize=auto;html=1;" edge="1" parent="liBEOMwWcHnnp5ZD2fOm-72" source="liBEOMwWcHnnp5ZD2fOm-56" target="liBEOMwWcHnnp5ZD2fOm-58">
          <mxGeometry relative="1" as="geometry" />
        </mxCell>
        <mxCell id="liBEOMwWcHnnp5ZD2fOm-56" value="QUADRACTIC EQUATIONS" style="rounded=1;whiteSpace=wrap;html=1;absoluteArcSize=1;arcSize=14;strokeWidth=2;fillColor=#e1d5e7;strokeColor=#9673a6;container=0;" vertex="1" parent="liBEOMwWcHnnp5ZD2fOm-72">
          <mxGeometry x="808" y="5" width="100" height="50" as="geometry" />
        </mxCell>
        <mxCell id="liBEOMwWcHnnp5ZD2fOm-62" value="" style="edgeStyle=orthogonalEdgeStyle;rounded=0;orthogonalLoop=1;jettySize=auto;html=1;" edge="1" parent="liBEOMwWcHnnp5ZD2fOm-72" source="liBEOMwWcHnnp5ZD2fOm-58" target="liBEOMwWcHnnp5ZD2fOm-61">
          <mxGeometry relative="1" as="geometry" />
        </mxCell>
        <mxCell id="liBEOMwWcHnnp5ZD2fOm-58" value="FUNCTIONS" style="rounded=1;whiteSpace=wrap;html=1;absoluteArcSize=1;arcSize=14;strokeWidth=2;fillColor=#e1d5e7;strokeColor=#9673a6;container=0;" vertex="1" parent="liBEOMwWcHnnp5ZD2fOm-72">
          <mxGeometry x="949" y="5" width="90" height="50" as="geometry" />
        </mxCell>
        <mxCell id="liBEOMwWcHnnp5ZD2fOm-65" value="" style="edgeStyle=orthogonalEdgeStyle;rounded=0;orthogonalLoop=1;jettySize=auto;html=1;" edge="1" parent="liBEOMwWcHnnp5ZD2fOm-72" source="liBEOMwWcHnnp5ZD2fOm-61" target="liBEOMwWcHnnp5ZD2fOm-63">
          <mxGeometry relative="1" as="geometry" />
        </mxCell>
        <mxCell id="liBEOMwWcHnnp5ZD2fOm-61" value="EXPONENTS AND RADICALS" style="rounded=1;whiteSpace=wrap;html=1;absoluteArcSize=1;arcSize=14;strokeWidth=2;fillColor=#e1d5e7;strokeColor=#9673a6;container=0;" vertex="1" parent="liBEOMwWcHnnp5ZD2fOm-72">
          <mxGeometry x="1074" width="110" height="60" as="geometry" />
        </mxCell>
        <mxCell id="liBEOMwWcHnnp5ZD2fOm-71" value="" style="edgeStyle=orthogonalEdgeStyle;rounded=0;orthogonalLoop=1;jettySize=auto;html=1;" edge="1" parent="liBEOMwWcHnnp5ZD2fOm-72" source="liBEOMwWcHnnp5ZD2fOm-63" target="liBEOMwWcHnnp5ZD2fOm-70">
          <mxGeometry relative="1" as="geometry" />
        </mxCell>
        <mxCell id="liBEOMwWcHnnp5ZD2fOm-63" value="RATIONS EXPRESSIONS" style="rounded=1;whiteSpace=wrap;html=1;absoluteArcSize=1;arcSize=14;strokeWidth=2;fillColor=#e1d5e7;strokeColor=#9673a6;container=0;" vertex="1" parent="liBEOMwWcHnnp5ZD2fOm-72">
          <mxGeometry x="1210" width="110" height="60" as="geometry" />
        </mxCell>
        <mxCell id="liBEOMwWcHnnp5ZD2fOm-70" value="COMPREHENSIVE REVIEW" style="rounded=1;whiteSpace=wrap;html=1;absoluteArcSize=1;arcSize=14;strokeWidth=2;fillColor=#e1d5e7;strokeColor=#9673a6;container=0;" vertex="1" parent="liBEOMwWcHnnp5ZD2fOm-72">
          <mxGeometry x="1345" width="110" height="60" as="geometry" />
        </mxCell>
      </root>
    </mxGraphModel>
  </diagram>
</mxfile>
